<svg xmlns="http://www.w3.org/2000/svg" class="block size-full" fill="none" preserveAspectRatio="none" viewBox="0 0 350 350" style="background-color: transparent;"><g clip-path="url(#clip0_1_70)" id="undraw_doctors_djoj 2"><path d="M0 346.455C0 346.966 0.353577 347.376 0.793871 347.376H349.206C349.646 347.376 350 346.966 350 346.455C350 345.944 349.646 345.534 349.206 345.534H0.793871C0.353572 345.534 0 345.944 0 346.455Z" fill="var(--fill-0, #3F3C57)" id="Vector"/><g id="Group"><path d="M113.677 37.1962L117.466 57.2582L109.407 85.1825L96.4226 55.1801L98.2242 37.7744L113.677 37.1962Z" fill="var(--fill-0, #FDB4B4)" id="Vector_2"/><path d="M118.17 56.2191H95.7511V87.6502H118.17V56.2191Z" fill="var(--fill-0, #3895FF)" id="Vector_3"/><path d="M108.951 47.3017C117.406 47.3017 124.261 39.3479 124.261 29.5363C124.261 19.7247 117.406 11.7708 108.951 11.7708C100.495 11.7708 93.6404 19.7247 93.6404 29.5363C93.6404 39.3479 100.495 47.3017 108.951 47.3017Z" fill="var(--fill-0, #FDB4B4)" id="Vector_4"/><path d="M95.6238 42.7467C95.6238 42.7467 84.2115 18.2901 94.501 6.52102C104.791 -5.2481 113.051 2.50702 113.051 2.50702L117.767 2.28582C117.767 2.28582 118.751 6.59308 120.337 4.26138C121.923 1.92968 124.79 10.4214 124.79 10.4214C130.11 21.5392 111.667 24.0297 111.667 24.0297C111.667 24.0297 112.999 28.9523 111.645 29.9832C110.292 31.0141 106.675 34.8922 106.675 34.8922L103.438 37.7292L101.514 34.328C101.514 34.328 99.5045 32.4874 98.4893 33.2606C97.4741 34.0338 98.8706 44.2068 98.8706 44.2068L95.6238 42.7467Z" fill="var(--fill-0, #2E2E41)" id="Vector_5"/><path d="M77.257 222.67L71.4035 323.987L85.7934 324.553L104.817 223.519L77.257 222.67Z" fill="var(--fill-0, #2E2E41)" id="Vector_6"/><path d="M112.134 222.104L106.281 323.421L120.67 323.987L139.694 222.953L112.134 222.104Z" fill="var(--fill-0, #2E2E41)" id="Vector_7"/><path d="M73.7322 245.818L81.3926 135.469L69.645 78.008C68.6322 69.4664 73.2703 61.3843 80.4287 59.1804L91.9239 55.6416L97.0118 49.7376L108.584 79.3922L115.812 49.7602L121.449 54.5171L138.167 63.0756L138.159 63.276L135.478 132.689L141.464 244.835L141.198 244.839L73.7322 245.818Z" fill="var(--fill-0, #E8E9EA)" id="Vector_8"/><path d="M119.747 322.835L123.913 337.269C123.913 337.269 140.214 339.84 140.468 345.696C140.721 351.552 118.314 348.162 105.193 348.927C92.0723 349.693 102.994 333.205 102.994 333.205L104.393 323.731L119.747 322.835Z" fill="var(--fill-0, #2E2E41)" id="Vector_9"/><path d="M85.7195 321.796L89.8862 336.23C89.8862 336.23 106.187 338.801 106.441 344.657C106.694 350.513 84.2869 347.123 71.1661 347.888C58.0453 348.653 68.9674 332.166 68.9674 332.166L70.3656 322.692L85.7195 321.796Z" fill="var(--fill-0, #2E2E41)" id="Vector_10"/><path d="M65.3911 187.213C65.2144 184.367 65.6278 181.513 66.5966 178.891L63.4869 149.29L75.6684 147.985L77.5109 178.152C78.7351 180.626 79.4311 183.403 79.5405 186.253C79.8988 193.38 77.0217 199.37 73.114 199.635C69.2063 199.899 65.7484 194.338 65.3911 187.213Z" fill="var(--fill-0, #FDB4B4)" id="uuid-2a99fb06-c611-4846-a9cf-67468c4aeefc-137"/><path d="M142.546 191.558C142.396 188.71 142.836 185.862 143.829 183.252L140.998 153.613L153.191 152.463L154.75 182.651C155.951 185.14 156.621 187.926 156.703 190.777C156.995 197.908 154.061 203.861 150.151 204.076C146.242 204.292 142.836 198.687 142.546 191.558Z" fill="var(--fill-0, #FDB4B4)" id="uuid-a83e19fb-8297-4073-aac4-48fd1880d45d-138"/><path d="M63.4368 175.342L63.3956 175.086L57.047 135.56L64.5485 71.1964C65.2179 65.4501 69.6399 61.3107 74.6263 61.7733C77.2305 62.0152 79.5669 63.4484 81.2059 65.8094C82.8446 68.1704 83.5537 71.1248 83.2023 74.1288L77.5564 122.401L81.1111 174.033L63.4368 175.342Z" fill="var(--fill-0, #E8E9EA)" id="Vector_11"/><path d="M138.784 174.414L126.019 75.5494C125.356 72.6505 125.744 69.6167 127.119 67.0387C128.493 64.4607 130.659 62.7029 133.217 62.0888C138.112 60.9142 142.945 64.386 144.222 69.9914L156.485 173.173L138.784 174.414Z" fill="var(--fill-0, #E8E9EA)" id="Vector_12"/><path d="M108.959 88.4295C109.824 88.4295 110.526 87.6154 110.526 86.6112C110.526 85.607 109.824 84.7929 108.959 84.7929C108.093 84.7929 107.392 85.607 107.392 86.6112C107.392 87.6154 108.093 88.4295 108.959 88.4295Z" fill="var(--fill-0, #D6D7D8)" id="Vector_13"/><path d="M108.959 102.197C109.824 102.197 110.526 101.383 110.526 100.379C110.526 99.3743 109.824 98.5602 108.959 98.5602C108.093 98.5602 107.392 99.3743 107.392 100.379C107.392 101.383 108.093 102.197 108.959 102.197Z" fill="var(--fill-0, #D6D7D8)" id="Vector_14"/><path d="M108.959 115.964C109.824 115.964 110.526 115.15 110.526 114.146C110.526 113.142 109.824 112.328 108.959 112.328C108.093 112.328 107.392 113.142 107.392 114.146C107.392 115.15 108.093 115.964 108.959 115.964Z" fill="var(--fill-0, #D6D7D8)" id="Vector_15"/><path d="M108.959 129.732C109.824 129.732 110.526 128.917 110.526 127.913C110.526 126.909 109.824 126.095 108.959 126.095C108.093 126.095 107.392 126.909 107.392 127.913C107.392 128.917 108.093 129.732 108.959 129.732Z" fill="var(--fill-0, #D6D7D8)" id="Vector_16"/><path d="M108.959 143.499C109.824 143.499 110.526 142.685 110.526 141.681C110.526 140.676 109.824 139.862 108.959 139.862C108.093 139.862 107.392 140.676 107.392 141.681C107.392 142.685 108.093 143.499 108.959 143.499Z" fill="var(--fill-0, #D6D7D8)" id="Vector_17"/><path d="M108.959 157.266C109.824 157.266 110.526 156.452 110.526 155.448C110.526 154.444 109.824 153.63 108.959 153.63C108.093 153.63 107.392 154.444 107.392 155.448C107.392 156.452 108.093 157.266 108.959 157.266Z" fill="var(--fill-0, #D6D7D8)" id="Vector_18"/><path d="M108.959 171.034C109.824 171.034 110.526 170.22 110.526 169.215C110.526 168.211 109.824 167.397 108.959 167.397C108.093 167.397 107.392 168.211 107.392 169.215C107.392 170.22 108.093 171.034 108.959 171.034Z" fill="var(--fill-0, #D6D7D8)" id="Vector_19"/><path d="M108.959 184.801C109.824 184.801 110.526 183.987 110.526 182.983C110.526 181.978 109.824 181.164 108.959 181.164C108.093 181.164 107.392 181.978 107.392 182.983C107.392 183.987 108.093 184.801 108.959 184.801Z" fill="var(--fill-0, #D6D7D8)" id="Vector_20"/><path d="M108.961 195.451L79.3107 190.866L78.7398 190.778L63.5863 150.234L54.5619 126.096H78.0677L108.961 195.451Z" fill="var(--fill-0, #3895FF)" id="Vector_21"/></g><g id="Group_2"><path d="M227.842 41.607L246.692 29.624V63.8612H224.891L227.842 41.607Z" fill="var(--fill-0, #2E2E41)" id="Vector_22"/><path d="M250.734 49.2402L252.474 66.0487L239.935 95.0216L232.153 68.0554L235.812 48.6819L250.734 49.2402Z" fill="var(--fill-0, #FDB4B4)" id="Vector_23"/><path d="M253.122 67.0521H231.473V97.4047H253.122V67.0521Z" fill="var(--fill-0, #3895FF)" id="Vector_24"/><path d="M270.982 227.791L276.634 325.631L262.738 326.178L244.367 228.611L270.982 227.791Z" fill="var(--fill-0, #2E2E41)" id="Vector_25"/><path d="M237.301 227.244L242.954 325.085L229.058 325.631L210.687 228.064L237.301 227.244Z" fill="var(--fill-0, #2E2E41)" id="Vector_26"/><path d="M285.663 248.542L285.332 248.541L196.807 248.206L196.887 247.842L219.646 143.208L213.945 90.4027C212.865 80.3968 217.481 70.939 225.432 66.8689L228.302 65.3997L233.755 60.7982L240.731 89.4007L251.902 60.7759L256.823 66.4853L267.921 69.9021C274.838 72.0315 279.32 79.8411 278.345 88.0678L278.334 88.1251L261.385 144.241L285.663 248.542Z" fill="var(--fill-0, #E8E9EA)" id="Vector_27"/><path d="M229.95 324.52L244.777 325.384L246.127 334.534C246.127 334.534 256.675 350.455 244.004 349.716C231.334 348.977 209.695 352.251 209.94 346.596C210.185 340.941 225.927 338.458 225.927 338.458L229.95 324.52Z" fill="var(--fill-0, #2E2E41)" id="Vector_28"/><path d="M262.81 323.516L277.637 324.381L278.987 333.53C278.987 333.53 289.534 349.452 276.864 348.713C264.193 347.974 242.555 351.247 242.799 345.593C243.044 339.938 258.786 337.454 258.786 337.454L262.81 323.516Z" fill="var(--fill-0, #2E2E41)" id="Vector_29"/><path d="M276.387 192.547C276.042 199.428 272.703 204.799 268.93 204.543C265.156 204.287 262.378 198.503 262.724 191.62C262.829 188.869 263.501 186.186 264.683 183.798L266.463 154.666L278.226 155.926L275.223 184.511C276.159 187.044 276.558 189.799 276.387 192.547Z" fill="var(--fill-0, #FDB4B4)" id="uuid-3bc2e7c3-8a4e-432b-b93d-ff096d796d3b-139"/><path d="M215.936 189.931C215.465 196.801 212.028 202.088 208.26 201.74C204.492 201.391 201.82 195.539 202.292 188.667C202.448 185.918 203.169 183.253 204.395 180.894L206.708 151.813L218.446 153.364L214.919 181.868C215.808 184.423 216.157 187.188 215.936 189.931Z" fill="var(--fill-0, #FDB4B4)" id="uuid-a34cbb18-fa14-4c0b-8260-87fab6b8d9f9-140"/><path d="M278.282 181.094L261.197 179.829L261.218 179.532L264.631 129.96L259.179 83.3452C258.839 80.4417 259.525 77.5857 261.109 75.3038C262.692 73.0215 264.951 71.6361 267.468 71.4023C272.288 70.9614 276.562 74.9565 277.209 80.5107L284.454 142.668L284.446 142.714L278.282 181.094Z" fill="var(--fill-0, #E8E9EA)" id="Vector_30"/><path d="M218.78 179.195L201.669 177.995L201.706 177.682L213.506 78.3776C214.747 72.9236 219.421 69.5689 224.15 70.7037C226.623 71.2972 228.716 72.9963 230.044 75.4884C231.373 77.9805 231.748 80.9127 231.101 83.7452L218.78 179.195Z" fill="var(--fill-0, #E8E9EA)" id="Vector_31"/><path d="M240.368 98.1572C241.203 98.1572 241.881 97.371 241.881 96.4012C241.881 95.4315 241.203 94.6453 240.368 94.6453C239.532 94.6453 238.854 95.4315 238.854 96.4012C238.854 97.371 239.532 98.1572 240.368 98.1572Z" fill="var(--fill-0, #D6D7D8)" id="Vector_32"/><path d="M240.368 111.452C241.203 111.452 241.881 110.666 241.881 109.696C241.881 108.726 241.203 107.94 240.368 107.94C239.532 107.94 238.854 108.726 238.854 109.696C238.854 110.666 239.532 111.452 240.368 111.452Z" fill="var(--fill-0, #D6D7D8)" id="Vector_33"/><path d="M240.368 124.747C241.203 124.747 241.881 123.961 241.881 122.991C241.881 122.021 241.203 121.235 240.368 121.235C239.532 121.235 238.854 122.021 238.854 122.991C238.854 123.961 239.532 124.747 240.368 124.747Z" fill="var(--fill-0, #D6D7D8)" id="Vector_34"/><path d="M240.368 138.042C241.203 138.042 241.881 137.256 241.881 136.286C241.881 135.316 241.203 134.53 240.368 134.53C239.532 134.53 238.854 135.316 238.854 136.286C238.854 137.256 239.532 138.042 240.368 138.042Z" fill="var(--fill-0, #D6D7D8)" id="Vector_35"/><path d="M240.368 151.337C241.203 151.337 241.881 150.551 241.881 149.581C241.881 148.611 241.203 147.825 240.368 147.825C239.532 147.825 238.854 148.611 238.854 149.581C238.854 150.551 239.532 151.337 240.368 151.337Z" fill="var(--fill-0, #D6D7D8)" id="Vector_36"/><path d="M240.368 164.632C241.203 164.632 241.881 163.846 241.881 162.876C241.881 161.906 241.203 161.12 240.368 161.12C239.532 161.12 238.854 161.906 238.854 162.876C238.854 163.846 239.532 164.632 240.368 164.632Z" fill="var(--fill-0, #D6D7D8)" id="Vector_37"/><path d="M240.368 177.927C241.203 177.927 241.881 177.141 241.881 176.171C241.881 175.201 241.203 174.415 240.368 174.415C239.532 174.415 238.854 175.201 238.854 176.171C238.854 177.141 239.532 177.927 240.368 177.927Z" fill="var(--fill-0, #D6D7D8)" id="Vector_38"/><path d="M240.368 191.222C241.203 191.222 241.881 190.436 241.881 189.466C241.881 188.496 241.203 187.71 240.368 187.71C239.532 187.71 238.854 188.496 238.854 189.466C238.854 190.436 239.532 191.222 240.368 191.222Z" fill="var(--fill-0, #D6D7D8)" id="Vector_39"/><path d="M242.665 57.8186C250.482 57.8186 256.819 50.4652 256.819 41.3944C256.819 32.3236 250.482 24.9703 242.665 24.9703C234.848 24.9703 228.511 32.3236 228.511 41.3944C228.511 50.4652 234.848 57.8186 242.665 57.8186Z" fill="var(--fill-0, #FDB4B4)" id="Vector_40"/><path d="M250.083 22.2213C250.761 23.8219 249.685 25.8213 248.262 26.4943C246.838 27.1672 245.23 26.8946 243.712 26.6145C242.194 26.3343 240.583 26.0687 239.164 26.7536C237.327 27.6397 236.292 29.8626 235.4 31.9254C233.735 35.7763 232.07 39.6272 230.404 43.4781C229.591 45.3595 228.759 47.3256 228.743 49.4306C228.714 53.2944 231.356 56.3822 232.777 59.8766C234.507 64.1312 234.365 69.3452 232.405 73.4638C230.445 77.5824 226.719 80.5006 222.694 81.0682C221.635 81.2176 220.514 81.2013 219.562 80.6431C218.61 80.0849 217.884 78.8658 218.06 77.645C218.405 75.2572 221.549 74.6993 222.127 72.3728C222.428 71.1584 221.894 69.8615 221.174 68.9129C220.455 67.9643 219.545 67.2243 218.858 66.2432C217.275 63.9807 217.17 60.4881 218.612 58.1026C219.46 56.7007 220.771 55.6591 221.319 54.0688C221.786 52.7133 221.617 51.1897 221.44 49.7443C221.212 47.8871 220.985 46.03 220.758 44.1728C220.493 42.006 220.232 39.7615 220.756 37.6591C221.957 32.8413 226.645 30.5786 229.394 26.7088C230.672 24.9105 231.531 22.7478 232.842 20.9819C235.041 18.0184 238.504 16.3836 241.862 16.7234C245.22 17.0633 248.386 19.369 250.11 22.7296" fill="var(--fill-0, #2E2E41)" id="Vector_41"/><path d="M247.848 22.525C247.157 22.812 246.9 23.8571 247.099 24.6774C247.298 25.4977 247.819 26.1495 248.296 26.7973C253.692 34.1248 254.946 45.2084 251.364 53.9039C250.411 56.2168 249.141 58.3936 248.627 60.8869C248.253 62.7011 248.273 64.6911 247.406 66.2617C246.523 67.8607 244.773 68.9321 244.6 70.8205C244.489 72.0324 245.125 73.2096 245.979 73.9202C246.832 74.6307 247.875 74.9558 248.9 75.2208C251.564 75.9098 254.289 76.2859 257.018 76.3416C257.908 76.3598 258.826 76.3374 259.643 75.926C260.459 75.5146 261.156 74.6223 261.165 73.5896C261.172 72.778 260.769 72.0293 260.718 71.2198C260.563 68.7944 263.376 67.504 263.924 65.1565C264.284 63.6132 263.575 62.0251 262.818 60.6884C262.062 59.3517 261.199 57.9481 261.218 56.3493C261.236 54.8187 262.064 53.4708 262.385 51.9863C262.83 49.9329 262.284 47.7851 261.741 45.7635C261.28 44.0447 260.819 42.326 260.358 40.6072C259.868 38.7801 259.378 36.953 258.888 35.1259C258.033 31.9362 257.135 28.654 255.283 26.0957C253.432 23.5374 250.364 21.8606 247.63 22.9051" fill="var(--fill-0, #2E2E41)" id="Vector_42"/></g><g id="Group_3"><path d="M257.493 86.1689L256.523 85.8408C258.544 77.7993 254.186 62.7928 254.142 62.6422L255.098 62.2637C255.283 62.8933 259.603 77.7753 257.493 86.1689Z" fill="var(--fill-0, #3F3C57)" id="Vector_43"/><path d="M257.008 95.4054C259.339 95.4054 261.229 93.2124 261.229 90.5073C261.229 87.8021 259.339 85.6092 257.008 85.6092C254.677 85.6092 252.787 87.8021 252.787 90.5073C252.787 93.2124 254.677 95.4054 257.008 95.4054Z" fill="var(--fill-0, #3F3C57)" id="Vector_44"/><path d="M229.272 107.848H226.712C226.433 107.848 226.207 107.586 226.207 107.262C226.207 106.938 226.433 106.676 226.712 106.676H229.272C229.978 106.676 230.64 106.357 231.139 105.777C231.637 105.198 231.911 104.428 231.909 103.61L231.878 85.3132C231.878 81.3384 229.092 78.1056 225.668 78.1056C222.243 78.1056 219.457 81.3384 219.457 85.312L219.488 102.438C219.491 104.109 220.665 105.478 222.104 105.491L223.862 105.507C224.14 105.509 224.365 105.773 224.363 106.098C224.361 106.42 224.135 106.679 223.858 106.679H223.854L222.097 106.664C220.105 106.646 218.481 104.751 218.477 102.44L218.446 85.3132C218.446 80.6919 221.686 76.933 225.668 76.933C229.649 76.933 232.889 80.6919 232.889 85.312L232.92 103.608C232.922 104.74 232.543 105.804 231.854 106.605C231.165 107.407 230.248 107.848 229.272 107.848Z" fill="var(--fill-0, #3F3C57)" id="Vector_45"/><path d="M223.858 108.171C224.847 108.171 225.649 107.241 225.649 106.093C225.649 104.945 224.847 104.015 223.858 104.015C222.869 104.015 222.067 104.945 222.067 106.093C222.067 107.241 222.869 108.171 223.858 108.171Z" fill="var(--fill-0, #3F3C57)" id="Vector_46"/><path d="M226.712 109.34C227.701 109.34 228.503 108.41 228.503 107.262C228.503 106.114 227.701 105.184 226.712 105.184C225.723 105.184 224.921 106.114 224.921 107.262C224.921 108.41 225.723 109.34 226.712 109.34Z" fill="var(--fill-0, #3F3C57)" id="Vector_47"/></g><path d="M123.325 77.3803L122.355 77.0522C124.376 69.0107 120.067 53.7718 120.023 53.6212L121.236 54.6819C121.421 55.3114 125.435 68.9867 123.325 77.3803Z" fill="var(--fill-0, #3F3C57)" id="Vector_48"/><path d="M89.2236 78.809L90.1937 78.4809C88.1726 70.4394 92.5307 55.4329 92.5746 55.2823L91.5369 56.0889C91.3518 56.7184 87.1137 70.4153 89.2236 78.809Z" fill="var(--fill-0, #3F3C57)" id="Vector_49"/><path d="M122.84 86.6168C125.171 86.6168 127.061 84.4238 127.061 81.7187C127.061 79.0135 125.171 76.8206 122.84 76.8206C120.509 76.8206 118.619 79.0135 118.619 81.7187C118.619 84.4238 120.509 86.6168 122.84 86.6168Z" fill="var(--fill-0, #3F3C57)" id="Vector_50"/><path d="M93.7239 108.93H91.1639C90.8846 108.93 90.6586 108.668 90.6586 108.344C90.6586 108.02 90.8846 107.758 91.1639 107.758H93.7239C94.4295 107.758 95.0922 107.439 95.5906 106.859C96.0884 106.28 96.3623 105.51 96.3608 104.692L96.3297 86.3955C96.3297 82.4207 93.5438 79.188 90.1193 79.188C86.6948 79.188 83.9083 82.4207 83.9083 86.3943L83.9394 103.52C83.9424 105.191 85.1163 106.561 86.5561 106.573L88.3133 106.589C88.5921 106.592 88.8166 106.856 88.8146 107.18C88.8126 107.502 88.5866 107.762 88.3093 107.762H88.3054L86.5482 107.746C84.5567 107.728 82.9328 105.833 82.9289 103.523L82.8978 86.3955C82.8978 81.7743 86.1372 78.0153 90.1193 78.0153C94.1008 78.0153 97.3403 81.7743 97.3403 86.3943L97.3714 104.69C97.3734 105.822 96.9949 106.887 96.3055 107.688C95.6167 108.489 94.6994 108.93 93.7239 108.93Z" fill="var(--fill-0, #3F3C57)" id="Vector_51"/><path d="M88.3095 109.253C89.2986 109.253 90.1004 108.323 90.1004 107.175C90.1004 106.028 89.2986 105.097 88.3095 105.097C87.3204 105.097 86.5186 106.028 86.5186 107.175C86.5186 108.323 87.3204 109.253 88.3095 109.253Z" fill="var(--fill-0, #3F3C57)" id="Vector_52"/><path d="M91.1638 110.422C92.1528 110.422 92.9547 109.492 92.9547 108.344C92.9547 107.197 92.1528 106.266 91.1638 106.266C90.1747 106.266 89.3729 107.197 89.3729 108.344C89.3729 109.492 90.1747 110.422 91.1638 110.422Z" fill="var(--fill-0, #3F3C57)" id="Vector_53"/></g><defs><clipPath id="clip0_1_70"><rect fill="none" height="350" width="350"/></clipPath></defs></svg>